<svg data-v-cbda9cfa="" version="1.0" xmlns="http://www.w3.org/2000/svg" xmlns:xlink="http://www.w3.org/1999/xlink" width="100%" height="100%" viewBox="0 0 340.000000 250.000000" preserveAspectRatio="xMidYMid meet" color-interpolation-filters="sRGB" class="el-tooltip" style="margin: auto;"><rect data-v-cbda9cfa="" x="0" y="0" width="100%" height="100%" fill="#2d2d2d" fill-opacity="1"></rect> <rect data-v-cbda9cfa="" x="0" y="0" width="100%" height="100%" fill="url(#watermark)" fill-opacity="1" class="watermarklayer"></rect> <g data-v-cbda9cfa="" class="iconbgsvg" transform="translate(99.99959564208984,54.91139221191406)"><defs><clipPath id="f0974603df67b9364940bfa56bb892f2"><rect x="-50" y="-21" width="350" height="70"></rect> <rect x="-50" y="91" width="350" height="70"></rect></clipPath></defs> <g fill="#ffffff"><g clip-path="url(#f0974603df67b9364940bfa56bb892f2)"><rect fill="#ffffff" fill-opacity="0" stroke-width="2" x="0" y="0" width="140" height="140.15814183345643"></rect> <svg filter="url(#colors799516538)" x="0" y="0" width="140" height="140.15814183345643" class="imagesvg-svg"><svg xmlns="http://www.w3.org/2000/svg" viewBox="0 0 283.29 283.61"><g><g fill="#000000"><path d="M211.94 97.88c17.54 12.12 30.4 33.59 33.17 58.65 2.52 23-2.14 44.56-13.17 63.06-12.06 20.26-29.63 38-55.41 48.64-18.49 7.65-35.79 10.36-58.39 8.61-13-1-29.57-4.71-50.23-16.23-16-8.94-28.65-20.39-41.55-36.68-10.62-13.37-22.2-38.4-25.53-65.34-1-8.08-4.24-44 15.26-82.64-17.59 36.36-14.9 71.17-13.22 82.51 4 26.91 15.74 52.83 25.64 64.16 17.21 19.79 27.22 27.48 40.74 34.26a125.11 125.11 0 0 0 49.52 13.43c23.07 1.58 43.58-4.29 54.62-9.37 24-11 38.13-24.65 49.8-44.88a87 87 0 0 0 10.58-57c-4-26-19.91-42.21-30.12-48.24-11.09-6.57-28.32-11.14-41.76-4.24a26.5 26.5 0 0 0-6.42-16c22-10.12 40.53-3.69 56.47 7.3z"></path><path d="M138.75 59c19.27-9.13 44.3-9.53 67.38.61 21.14 9.29 37.52 24.13 48 42.93 11.51 20.57 18 44.64 14.41 72.31-2.62 19.83-8.92 36.17-21.73 54.86-7.39 10.76-18.87 23.26-39.18 35.4-15.77 9.42-32 14.61-52.53 17.64-16.9 2.51-44.36 0-69.35-10.56-7.5-3.18-40.27-18.36-63.94-54.54C44.52 251 76 266.1 86.68 270.32c25.28 10 53.62 12.78 68.39 9.87 25.73-5 37.41-9.83 50-18.16a125 125 0 0 0 36.39-36.17c12.91-19.18 18.08-39.88 19.2-52 2.45-26.26-2.28-45.34-14-65.57a87.14 87.14 0 0 0-44.1-37.68c-24.48-9.54-46.52-3.86-56.84 2-11.24 6.33-23.81 19-24.56 34.05a26.46 26.46 0 0 0-17-2.42c2.22-24.09 17.07-36.95 34.55-45.26z"></path><path d="M68.46 102.89c1.72-21.25 13.89-43.13 34.21-58 18.62-13.67 39.65-20.43 61.2-20.13 23.56.32 47.68 6.69 69.82 23.67 15.86 12.19 26.86 25.81 36.65 46.26 5.62 11.77 10.71 28 11.06 51.62.28 18.37-3.34 35-11 54.32-6.27 15.89-22.16 38.42-43.82 54.78-6.5 4.9-36 25.69-79.2 28.1 40.28-2.94 69.09-22.68 78.07-29.8 21.32-16.88 37.87-40 42.74-54.29 8.53-24.79 10.19-37.31 9.29-52.41a125.11 125.11 0 0 0-13.12-49.6C254.2 76.59 238.86 61.76 229 54.75c-21.52-15.26-40.41-20.7-63.77-20.7A87.17 87.17 0 0 0 110.5 53.4C90 69.83 83.9 91.76 83.78 103.61c-.15 12.9 4.52 30.09 17.21 38.29a26.45 26.45 0 0 0-10.62 13.54c-19.75-14-23.46-33.26-21.91-52.55z"></path><path d="M71.35 185.73c-17.55-12.12-30.41-33.6-33.17-58.65-2.52-23 2.14-44.56 13.17-63.07C63.41 43.76 81 26.06 106.76 15.38 125.24 7.73 142.55 5 165.14 6.77c13 1 29.58 4.71 50.24 16.23 16.05 8.94 28.65 20.39 41.55 36.68 10.62 13.37 22.19 38.4 25.52 65.33 1 8.09 4.24 44.06-15.26 82.65 17.6-36.36 14.9-71.18 13.23-82.51-3.95-26.91-15.74-52.83-25.64-64.15-17.21-19.8-27.22-27.49-40.78-34.27a125.14 125.14 0 0 0-49.49-13.43c-23.07-1.59-43.57 4.29-54.61 9.37-24 11-38.13 24.65-49.81 44.88a87.09 87.09 0 0 0-10.58 57c4 26 19.92 42.21 30.12 48.24 11.1 6.57 28.32 11.14 41.76 4.24a26.56 26.56 0 0 0 6.42 16c-22 10.12-40.53 3.69-56.46-7.3z"></path><path d="M144.54 224.65c-19.27 9.13-44.3 9.53-67.38-.61-21.15-9.29-37.52-24.13-48-42.94-11.51-20.56-18.06-44.63-14.42-72.3 2.6-19.8 8.9-36.17 21.71-54.86 7.39-10.76 18.87-23.26 39.17-35.4C91.39 9.12 107.61 3.93 128.16.9c16.9-2.51 44.36 0 69.35 10.56C205 14.64 237.78 29.82 261.45 66c-22.69-33.42-54.19-48.49-64.84-52.71C171.33 3.26 143 .51 128.22 3.42c-25.74 5-37.41 9.83-50 18.16a125.05 125.05 0 0 0-36.4 36.17c-12.91 19.18-18.08 39.88-19.19 52-2.45 26.26 2.28 45.34 14 65.57A87.14 87.14 0 0 0 80.66 213c24.48 9.54 46.51 3.86 56.84-2 11.24-6.33 23.8-19 24.55-34.05a26.5 26.5 0 0 0 17 2.42c-2.22 24.09-17.07 37-34.55 45.26z"></path><path d="M214.83 180.72c-1.72 21.25-13.89 43.13-34.21 58.05C162 252.44 141 259.2 119.42 258.9c-23.57-.32-47.68-6.69-69.82-23.67C33.73 223 22.73 209.41 13 189c-5.67-11.8-10.76-28-11.11-51.65-.28-18.37 3.33-35 11-54.32C19.15 67.14 35 44.61 56.7 28.25c6.5-4.9 36-25.7 79.2-28.1C95.62 3.09 66.81 22.83 57.83 30 36.51 46.83 20 70 15.09 84.24 6.56 109 4.9 121.55 5.79 136.65a125.25 125.25 0 0 0 13.13 49.6c10.16 20.77 25.5 35.6 35.42 42.61 21.52 15.25 40.41 20.7 63.77 20.7a87.17 87.17 0 0 0 54.68-19.35c20.5-16.43 26.6-38.36 26.72-50.21.14-12.9-4.52-30.09-17.21-38.29a26.5 26.5 0 0 0 10.62-13.54c19.75 14 23.46 33.26 21.91 52.55z"></path></g></g></svg></svg> <defs><filter id="colors799516538"><feColorMatrix type="matrix" values="0 0 0 0 0.99609375  0 0 0 0 0.99609375  0 0 0 0 0.99609375  0 0 0 1 0" class="icon-fecolormatrix"></feColorMatrix></filter></defs></g> <g transform="translate(6.2537384033203125,57.94465923309326)"><g class="tp-name"><g><path d="M0.12-3.88L0.12-3.88L0.12-3.88Q-0.08-4.28 0.02-4.66L0.02-4.66L0.02-4.66Q0.12-5.04 0.38-5.22L0.38-5.22L0.38-5.22Q0.64-5.40 0.98-5.38L0.98-5.38L0.98-5.38Q1.32-5.36 1.68-5L1.68-5L1.68-5Q2.16-4.52 2.68-4.06L2.68-4.06L2.68-4.06Q3.20-3.60 3.84-3.26L3.84-3.26L3.84-3.26Q4.48-2.92 5.30-2.76L5.30-2.76L5.30-2.76Q6.12-2.60 7.16-2.72L7.16-2.72L7.16-2.72Q8.60-2.88 9.58-3.92L9.58-3.92L9.58-3.92Q10.56-4.96 11.18-6.52L11.18-6.52L11.18-6.52Q11.80-8.08 12.12-10.02L12.12-10.02L12.12-10.02Q12.44-11.96 12.56-13.92L12.56-13.92L12.56-13.92Q12.68-15.88 12.66-17.72L12.66-17.72L12.66-17.72Q12.64-19.56 12.60-20.96L12.60-20.96L12.60-20.96Q10.32-20.92 8.34-20.82L8.34-20.82L8.34-20.82Q6.36-20.72 4.96-20.52L4.96-20.52L4.96-20.52Q4.52-20.48 4.28-20.72L4.28-20.72L4.28-20.72Q4.04-20.96 4-21.28L4-21.28L4-21.28Q3.96-21.60 4.12-21.90L4.12-21.90L4.12-21.90Q4.28-22.20 4.64-22.32L4.64-22.32L4.64-22.32Q6.44-22.80 8.48-23.06L8.48-23.06L8.48-23.06Q10.52-23.32 12.44-23.42L12.44-23.42L12.44-23.42Q14.36-23.52 15.92-23.46L15.92-23.46L15.92-23.46Q17.48-23.40 18.32-23.28L18.32-23.28L18.32-23.28Q18.88-23.16 19.16-22.74L19.16-22.74L19.16-22.74Q19.44-22.32 19.40-21.88L19.40-21.88L19.40-21.88Q19.36-21.44 18.96-21.08L18.96-21.08L18.96-21.08Q18.56-20.72 17.72-20.80L17.72-20.80L17.72-20.80Q16.92-20.88 16.18-20.90L16.18-20.90L16.18-20.90Q15.44-20.92 14.68-20.96L14.68-20.96L14.68-20.96Q14.84-18.68 14.98-15.90L14.98-15.90L14.98-15.90Q15.12-13.12 14.76-9.60L14.76-9.60L14.76-9.60Q14.32-5.32 12.52-2.86L12.52-2.86L12.52-2.86Q10.72-0.40 7.84-0.08L7.84-0.08L7.84-0.08Q5.96 0.12 4.56-0.34L4.56-0.34L4.56-0.34Q3.16-0.80 2.22-1.48L2.22-1.48L2.22-1.48Q1.28-2.16 0.76-2.88L0.76-2.88L0.76-2.88Q0.24-3.60 0.12-3.88ZM22.60-3.32L22.60-3.32L22.60-3.32Q22.12-3.60 22.06-4.04L22.06-4.04L22.06-4.04Q22-4.48 22.22-4.84L22.22-4.84L22.22-4.84Q22.44-5.20 22.86-5.34L22.86-5.34L22.86-5.34Q23.28-5.48 23.72-5.20L23.72-5.20L23.72-5.20Q25.60-4 27.60-3.36L27.60-3.36L27.60-3.36Q29.60-2.72 31.48-2.54L31.48-2.54L31.48-2.54Q33.36-2.36 35.04-2.56L35.04-2.56L35.04-2.56Q36.72-2.76 37.98-3.24L37.98-3.24L37.98-3.24Q39.24-3.72 40-4.44L40-4.44L40-4.44Q40.76-5.16 40.84-5.96L40.84-5.96L40.84-5.96Q40.92-7.08 40.18-7.76L40.18-7.76L40.18-7.76Q39.44-8.44 38.16-8.92L38.16-8.92L38.16-8.92Q36.88-9.40 35.22-9.72L35.22-9.72L35.22-9.72Q33.56-10.04 31.82-10.40L31.82-10.40L31.82-10.40Q30.08-10.76 28.38-11.24L28.38-11.24L28.38-11.24Q26.68-11.72 25.36-12.48L25.36-12.48L25.36-12.48Q24.04-13.24 23.20-14.38L23.20-14.38L23.20-14.38Q22.36-15.52 22.32-17.24L22.32-17.24L22.32-17.24Q22.28-18.80 23.10-20L23.10-20L23.10-20Q23.92-21.20 25.30-22.04L25.30-22.04L25.30-22.04Q26.68-22.88 28.52-23.34L28.52-23.34L28.52-23.34Q30.36-23.80 32.38-23.90L32.38-23.90L32.38-23.90Q34.40-24 36.46-23.72L36.46-23.72L36.46-23.72Q38.52-23.44 40.36-22.80L40.36-22.80L40.36-22.80Q41.36-22.44 41.66-21.80L41.66-21.80L41.66-21.80Q41.96-21.16 41.72-20.62L41.72-20.62L41.72-20.62Q41.48-20.08 40.78-19.82L40.78-19.82L40.78-19.82Q40.08-19.56 39.12-19.96L39.12-19.96L39.12-19.96Q36.96-20.84 34.46-21.12L34.46-21.12L34.46-21.12Q31.96-21.40 29.84-21.04L29.84-21.04L29.84-21.04Q27.72-20.68 26.38-19.70L26.38-19.70L26.38-19.70Q25.04-18.72 25.20-17.12L25.20-17.12L25.20-17.12Q25.32-15.84 26.18-15.02L26.18-15.02L26.18-15.02Q27.04-14.20 28.34-13.66L28.34-13.66L28.34-13.66Q29.64-13.12 31.28-12.76L31.28-12.76L31.28-12.76Q32.92-12.40 34.60-12.06L34.60-12.06L34.60-12.06Q36.28-11.72 37.90-11.30L37.90-11.30L37.90-11.30Q39.52-10.88 40.80-10.22L40.80-10.22L40.80-10.22Q42.08-9.56 42.86-8.58L42.86-8.58L42.86-8.58Q43.64-7.60 43.72-6.12L43.72-6.12L43.72-6.12Q43.76-4.56 42.86-3.34L42.86-3.34L42.86-3.34Q41.96-2.12 40.38-1.34L40.38-1.34L40.38-1.34Q38.80-0.56 36.70-0.22L36.70-0.22L36.70-0.22Q34.60 0.12 32.22-0.08L32.22-0.08L32.22-0.08Q29.84-0.28 27.36-1.06L27.36-1.06L27.36-1.06Q24.88-1.84 22.60-3.32ZM48.12-3.32L48.12-3.32L48.12-3.32Q47.64-3.60 47.58-4.04L47.58-4.04L47.58-4.04Q47.52-4.48 47.74-4.84L47.74-4.84L47.74-4.84Q47.96-5.20 48.38-5.34L48.38-5.34L48.38-5.34Q48.80-5.48 49.24-5.20L49.24-5.20L49.24-5.20Q51.12-4 53.12-3.36L53.12-3.36L53.12-3.36Q55.12-2.72 57-2.54L57-2.54L57-2.54Q58.88-2.36 60.56-2.56L60.56-2.56L60.56-2.56Q62.24-2.76 63.50-3.24L63.50-3.24L63.50-3.24Q64.76-3.72 65.52-4.44L65.52-4.44L65.52-4.44Q66.28-5.16 66.36-5.96L66.36-5.96L66.36-5.96Q66.44-7.08 65.70-7.76L65.70-7.76L65.70-7.76Q64.96-8.44 63.68-8.92L63.68-8.92L63.68-8.92Q62.40-9.40 60.74-9.72L60.74-9.72L60.74-9.72Q59.08-10.04 57.34-10.40L57.34-10.40L57.34-10.40Q55.60-10.76 53.90-11.24L53.90-11.24L53.90-11.24Q52.20-11.72 50.88-12.48L50.88-12.48L50.88-12.48Q49.56-13.24 48.72-14.38L48.72-14.38L48.72-14.38Q47.88-15.52 47.84-17.24L47.84-17.24L47.84-17.24Q47.80-18.80 48.62-20L48.62-20L48.62-20Q49.44-21.20 50.82-22.04L50.82-22.04L50.82-22.04Q52.20-22.88 54.04-23.34L54.04-23.34L54.04-23.34Q55.88-23.80 57.90-23.90L57.90-23.90L57.90-23.90Q59.92-24 61.98-23.72L61.98-23.72L61.98-23.72Q64.04-23.44 65.88-22.80L65.88-22.80L65.88-22.80Q66.88-22.44 67.18-21.80L67.18-21.80L67.18-21.80Q67.48-21.16 67.24-20.62L67.24-20.62L67.24-20.62Q67-20.08 66.30-19.82L66.30-19.82L66.30-19.82Q65.60-19.56 64.64-19.96L64.64-19.96L64.64-19.96Q62.48-20.84 59.98-21.12L59.98-21.12L59.98-21.12Q57.48-21.40 55.36-21.04L55.36-21.04L55.36-21.04Q53.24-20.68 51.90-19.70L51.90-19.70L51.90-19.70Q50.56-18.72 50.72-17.12L50.72-17.12L50.72-17.12Q50.84-15.84 51.70-15.02L51.70-15.02L51.70-15.02Q52.56-14.20 53.86-13.66L53.86-13.66L53.86-13.66Q55.16-13.12 56.80-12.76L56.80-12.76L56.80-12.76Q58.44-12.40 60.12-12.06L60.12-12.06L60.12-12.06Q61.80-11.72 63.42-11.30L63.42-11.30L63.42-11.30Q65.04-10.88 66.32-10.22L66.32-10.22L66.32-10.22Q67.60-9.56 68.38-8.58L68.38-8.58L68.38-8.58Q69.16-7.60 69.24-6.12L69.24-6.12L69.24-6.12Q69.28-4.56 68.38-3.34L68.38-3.34L68.38-3.34Q67.48-2.12 65.90-1.34L65.90-1.34L65.90-1.34Q64.32-0.56 62.22-0.22L62.22-0.22L62.22-0.22Q60.12 0.12 57.74-0.08L57.74-0.08L57.74-0.08Q55.36-0.28 52.88-1.06L52.88-1.06L52.88-1.06Q50.40-1.84 48.12-3.32ZM88.32-1.36L88.32-1.36L88.32-1.36Q88.20-0.60 87.80-0.26L87.80-0.26L87.80-0.26Q87.40 0.08 86.98 0.02L86.98 0.02L86.98 0.02Q86.56-0.04 86.24-0.44L86.24-0.44L86.24-0.44Q85.92-0.84 85.92-1.56L85.92-1.56L85.92-1.56Q85.96-3.20 85.96-4.96L85.96-4.96L85.96-8.68L85.96-8.68Q85.96-10.68 85.14-12.16L85.14-12.16L85.14-12.16Q84.32-13.64 82.98-14.08L82.98-14.08L82.98-14.08Q81.64-14.52 79.88-13.66L79.88-13.66L79.88-13.66Q78.12-12.80 76.24-10.16L76.24-10.16L76.16-10.08L76.16-10.08Q76.08-5.68 76.40-1.76L76.40-1.76L76.40-1.76Q76.44-0.80 76.08-0.40L76.08-0.40L76.08-0.40Q75.72 0 75.22-0.04L75.22-0.04L75.22-0.04Q74.72-0.08 74.28-0.52L74.28-0.52L74.28-0.52Q73.84-0.96 73.76-1.72L73.76-1.72L73.76-1.72Q73.44-4.84 73.50-8.22L73.50-8.22L73.50-8.22Q73.56-11.60 73.80-14.60L73.80-14.60L73.80-14.60Q74.04-17.60 74.40-19.90L74.40-19.90L74.40-19.90Q74.76-22.20 75.04-23.16L75.04-23.16L75.04-23.16Q75.16-23.64 75.50-23.84L75.50-23.84L75.50-23.84Q75.84-24.04 76.18-24L76.18-24L76.18-24Q76.52-23.96 76.76-23.70L76.76-23.70L76.76-23.70Q77-23.44 76.96-23L76.96-23L76.96-23Q76.44-17.84 76.24-12.84L76.24-12.84L76.24-12.84Q77.52-14.56 78.90-15.42L78.90-15.42L78.90-15.42Q80.28-16.28 81.62-16.42L81.62-16.42L81.62-16.42Q82.96-16.56 84.18-16.06L84.18-16.06L84.18-16.06Q85.40-15.56 86.32-14.56L86.32-14.56L86.32-14.56Q87.24-13.56 87.82-12.08L87.82-12.08L87.82-12.08Q88.40-10.60 88.44-8.84L88.44-8.84L88.44-8.84Q88.48-7.44 88.52-6.36L88.52-6.36L88.52-6.36Q88.56-5.28 88.56-4.40L88.56-4.40L88.56-4.40Q88.56-3.52 88.50-2.80L88.50-2.80L88.50-2.80Q88.44-2.08 88.32-1.36ZM96.84-18.48L96.84-18.48L96.84-18.48Q97.44-18.80 97.90-18.74L97.90-18.74L97.90-18.74Q98.36-18.68 98.66-18.34L98.66-18.34L98.66-18.34Q98.96-18 99.10-17.56L99.10-17.56L99.10-17.56Q99.24-17.12 99.12-16.76L99.12-16.76L99.12-16.76Q99.48-16.80 99.84-16.76L99.84-16.76L99.84-16.76Q102.28-16.56 104.16-15.40L104.16-15.40L104.16-15.40Q106.04-14.24 107.10-12.12L107.10-12.12L107.10-12.12Q108.16-10 107.80-7.08L107.80-7.08L107.80-7.08Q106.48-0.88 103.50-0.14L103.50-0.14L103.50-0.14Q100.52 0.60 96.92 0.04L96.92 0.04L96.92 0.04Q94.80-0.36 93.36-1.60L93.36-1.60L93.36-1.60Q91.92-2.84 91.36-4.58L91.36-4.58L91.36-4.58Q90.80-6.32 91.20-8.40L91.20-8.40L91.20-8.40Q91.40-9.52 92.00-10.64L92.00-10.64L92.00-10.64Q91.80-10.60 91.60-10.60L91.60-10.60L91.60-10.60Q90.52-10.76 90.32-11.62L90.32-11.62L90.32-11.62Q90.12-12.48 90.72-13.48L90.72-13.48L90.72-13.48Q90.96-13.92 91.46-14.24L91.46-14.24L91.46-14.24Q91.96-14.56 92.40-14.76L92.40-14.76L92.40-14.76Q92.84-14.96 93.52-15L93.52-15L93.52-15Q93.64-14.96 93.68-14.92L93.68-14.92L93.68-14.92Q93.80-14.88 93.70-14.94L93.70-14.94L93.70-14.94Q93.60-15 93.28-15.20L93.28-15.20L93.28-15.20Q92.48-15.84 92.28-16.58L92.28-16.58L92.28-16.58Q92.08-17.32 93.00-17.68L93.00-17.68L93.00-17.68Q93.32-17.84 93.70-17.66L93.70-17.66L93.70-17.66Q94.08-17.48 94.40-17.16L94.40-17.16L94.40-17.16Q94.76-16.80 95.08-16.36L95.08-16.36L95.08-16.36Q95.36-17.16 95.76-17.66L95.76-17.66L95.76-17.66Q96.16-18.16 96.84-18.48ZM93.20-8.28L93.20-8.28L93.20-8.28Q92.96-6.60 93.50-5.26L93.50-5.26L93.50-5.26Q94.04-3.92 95.18-3.04L95.18-3.04L95.18-3.04Q96.32-2.16 97.76-1.88L97.76-1.88L97.76-1.88Q100.12-1.56 102.24-2.08L102.24-2.08L102.24-2.08Q104.36-2.60 105.28-7.60L105.28-7.60L105.28-7.60Q105.56-9.64 104.84-11.14L104.84-11.14L104.84-11.14Q104.12-12.64 102.78-13.46L102.78-13.46L102.78-13.46Q101.44-14.28 99.68-14.40L99.68-14.40L99.68-14.40Q99.04-14.44 98.36-14.36L98.36-14.36L98.36-14.36Q98.32-14.08 98.24-13.80L98.24-13.80L98.24-13.80Q98.12-13.52 97.84-13.32L97.84-13.32L97.84-13.32Q97.72-13.16 97.40-13.22L97.40-13.22L97.40-13.22Q97.08-13.28 96.76-13.36L96.76-13.36L96.76-13.36Q96.36-13.44 96.04-13.68L96.04-13.68L96.04-13.68Q96.12-13.52 96.24-13.32L96.24-13.32L96.24-13.32Q96.40-12.88 96.44-12.52L96.44-12.52L96.44-12.52Q96.44-12.32 96.22-11.76L96.22-11.76L96.22-11.76Q96.00-11.20 95.04-11.16L95.04-11.16L95.04-11.16Q94.64-11.20 94.44-11.40L94.44-11.40L94.44-11.40Q93.40-9.76 93.20-8.28ZM103.00-9.16L103.00-9.16L103.00-9.16Q103.24-8.20 102.76-7.88L102.76-7.88L102.76-7.88Q102.48-7.68 102.16-7.74L102.16-7.74L102.16-7.74Q101.84-7.80 101.76-8.08L101.76-8.08L101.76-8.08Q101.52-8.92 102.00-9.32L102.00-9.32L102.00-9.32Q102.16-9.48 102.48-9.42L102.48-9.42L102.48-9.42Q102.80-9.36 103.00-9.16ZM96.12-8.84L96.12-8.84L96.12-8.84Q96.24-8.16 95.88-7.56L95.88-7.56L95.88-7.56Q95.64-7.44 95.32-7.52L95.32-7.52L95.32-7.52Q95.00-7.60 94.88-8.04L94.88-8.04L94.88-8.04Q94.72-8.28 94.78-8.60L94.78-8.60L94.78-8.60Q94.84-8.92 95.08-9.04L95.08-9.04L95.08-9.04Q95.32-9.24 95.64-9.18L95.64-9.18L95.64-9.18Q95.96-9.12 96.12-8.84ZM101.52-5.72L101.52-5.72L101.52-5.72Q101.72-5.52 101.66-5.20L101.66-5.20L101.66-5.20Q101.60-4.88 101.36-4.68L101.36-4.68L101.36-4.68Q101.12-4.52 100.80-4.58L100.80-4.58L100.80-4.58Q100.48-4.64 100.36-4.88L100.36-4.88L100.36-4.88Q100.12-5.60 100.60-6.12L100.60-6.12L100.60-6.12Q100.80-6.36 101.10-6.26L101.10-6.26L101.10-6.26Q101.40-6.16 101.52-5.72ZM99.60-9.48L99.60-9.48L99.60-9.48Q99.80-9.28 99.74-8.96L99.74-8.96L99.74-8.96Q99.68-8.64 99.44-8.52L99.44-8.52L99.44-8.52Q98.56-8.20 98.16-8.76L98.16-8.76L98.16-8.76Q98.04-8.96 98.12-9.26L98.12-9.26L98.12-9.26Q98.20-9.56 98.64-9.64L98.64-9.64L98.64-9.64Q98.88-9.84 99.18-9.78L99.18-9.78L99.18-9.78Q99.48-9.72 99.60-9.48ZM98.20-6.12L98.20-6.12L98.20-6.12Q98.56-5.80 98.42-5.50L98.42-5.50L98.42-5.50Q98.28-5.20 98.00-5.08L98.00-5.08L98.00-5.08Q97.80-4.88 97.48-4.94L97.48-4.94L97.48-4.94Q97.16-5 96.96-5.28L96.96-5.28L96.96-5.28Q96.84-5.48 96.90-5.78L96.90-5.78L96.90-5.78Q96.96-6.08 97.16-6.32L97.16-6.32L97.16-6.32Q97.44-6.44 97.76-6.38L97.76-6.38L97.76-6.38Q98.08-6.32 98.20-6.12ZM101.96-11.96L101.96-11.96L101.96-11.96Q102.28-11.64 102.24-11.36L102.24-11.36L102.24-11.36Q102.20-11.08 101.76-10.92L101.76-10.92L101.76-10.92Q101.52-10.76 101.20-10.82L101.20-10.82L101.20-10.82Q100.88-10.88 100.76-11.12L100.76-11.12L100.76-11.12Q100.36-11.72 100.96-12.12L100.96-12.12L100.96-12.12Q101.16-12.28 101.48-12.22L101.48-12.22L101.48-12.22Q101.80-12.16 101.96-11.96ZM111.88-14.80L111.88-14.80L111.88-14.80Q112.24-15.64 112.76-15.94L112.76-15.94L112.76-15.94Q113.28-16.24 113.72-16.12L113.72-16.12L113.72-16.12Q114.16-16 114.40-15.54L114.40-15.54L114.40-15.54Q114.64-15.08 114.40-14.48L114.40-14.48L114.40-14.48Q113.64-12.40 113.42-10.40L113.42-10.40L113.42-10.40Q113.20-8.40 113.32-6.96L113.32-6.96L113.32-6.96Q113.52-4.56 114.38-3.42L114.38-3.42L114.38-3.42Q115.24-2.28 116.46-2.20L116.46-2.20L116.46-2.20Q117.68-2.12 119.08-2.98L119.08-2.98L119.08-2.98Q120.48-3.84 121.76-5.44L121.76-5.44L121.76-5.44Q121.68-6.36 121.68-7.54L121.68-7.54L121.68-7.54Q121.68-8.72 121.78-9.98L121.78-9.98L121.78-9.98Q121.88-11.24 122.04-12.44L122.04-12.44L122.04-12.44Q122.20-13.64 122.48-14.60L122.48-14.60L122.48-14.60Q122.72-15.52 123.24-15.90L123.24-15.90L123.24-15.90Q123.76-16.28 124.24-16.18L124.24-16.18L124.24-16.18Q124.72-16.08 125.02-15.58L125.02-15.58L125.02-15.58Q125.32-15.08 125.12-14.24L125.12-14.24L125.12-14.24Q124.92-13.32 124.68-12L124.68-12L124.68-12Q124.44-10.68 124.28-9.28L124.28-9.28L124.28-9.28Q124.12-7.88 124.10-6.50L124.10-6.50L124.10-6.50Q124.08-5.12 124.32-4.06L124.32-4.06L124.32-4.06Q124.56-3 125.12-2.42L125.12-2.42L125.12-2.42Q125.68-1.84 126.68-2L126.68-2L126.68-2Q126.96-2.04 127.16-1.88L127.16-1.88L127.16-1.88Q127.36-1.72 127.44-1.48L127.44-1.48L127.44-1.48Q127.52-1.24 127.44-1.02L127.44-1.02L127.44-1.02Q127.36-0.80 127.08-0.72L127.08-0.72L127.08-0.72Q125.32-0.24 124.16-0.84L124.16-0.84L124.16-0.84Q123.00-1.44 122.32-3.48L122.32-3.48L122.32-3.48Q120.64-1.28 118.70-0.48L118.70-0.48L118.70-0.48Q116.76 0.32 115.08-0.12L115.08-0.12L115.08-0.12Q113.40-0.56 112.20-2.22L112.20-2.22L112.20-2.22Q111.00-3.88 110.84-6.64L110.84-6.64L110.84-6.64Q110.64-9.44 111.02-11.54L111.02-11.54L111.02-11.54Q111.40-13.64 111.88-14.80Z" transform="translate(-0.02, 24.006666666667)"></path></g> <!----> <!----> <!----> <!----> <!----> <!----> <!----></g> <!----></g></g></g></svg>